<mxfile host="65bd71144e">
    <diagram id="uOsE5bFgHeVcTdEkE6yO" name="Page-1">
        <mxGraphModel dx="1646" dy="1364" grid="1" gridSize="10" guides="1" tooltips="1" connect="1" arrows="1" fold="1" page="0" pageScale="1" pageWidth="850" pageHeight="1100" math="0" shadow="0">
            <root>
                <mxCell id="0"/>
                <mxCell id="1" parent="0"/>
                <mxCell id="2" value="comapnies" style="swimlane;fontStyle=0;childLayout=stackLayout;horizontal=1;startSize=30;horizontalStack=0;resizeParent=1;resizeParentMax=0;resizeLast=0;collapsible=1;marginBottom=0;whiteSpace=wrap;html=1;" vertex="1" parent="1">
                    <mxGeometry x="60" y="210" width="210" height="420" as="geometry"/>
                </mxCell>
                <mxCell id="55" value="&lt;div style=&quot;color: rgb(206, 206, 206); background-color: rgb(27, 27, 27); font-family: Consolas, &amp;quot;Courier New&amp;quot;, monospace; font-size: 14px; line-height: 25px;&quot;&gt;&lt;span style=&quot;&quot;&gt;_id&lt;/span&gt;:&amp;nbsp;&lt;span style=&quot;color: rgb(0, 220, 220);&quot;&gt;ObjectId&lt;/span&gt;&lt;/div&gt;" style="text;strokeColor=none;fillColor=none;align=left;verticalAlign=middle;spacingLeft=4;spacingRight=4;overflow=hidden;points=[[0,0.5],[1,0.5]];portConstraint=eastwest;rotatable=0;whiteSpace=wrap;html=1;" vertex="1" parent="2">
                    <mxGeometry y="30" width="210" height="30" as="geometry"/>
                </mxCell>
                <mxCell id="3" value="&lt;div style=&quot;color: rgb(206, 206, 206); background-color: rgb(27, 27, 27); font-family: Consolas, &amp;quot;Courier New&amp;quot;, monospace; font-size: 14px; line-height: 25px;&quot;&gt;name:&amp;nbsp;&lt;span style=&quot;color: rgb(150, 150, 255);&quot;&gt;string&lt;/span&gt;&lt;/div&gt;" style="text;strokeColor=none;fillColor=none;align=left;verticalAlign=middle;spacingLeft=4;spacingRight=4;overflow=hidden;points=[[0,0.5],[1,0.5]];portConstraint=eastwest;rotatable=0;whiteSpace=wrap;html=1;" vertex="1" parent="2">
                    <mxGeometry y="60" width="210" height="30" as="geometry"/>
                </mxCell>
                <mxCell id="4" value="&lt;div style=&quot;color: rgb(206, 206, 206); background-color: rgb(27, 27, 27); font-family: Consolas, &amp;quot;Courier New&amp;quot;, monospace; font-size: 14px; line-height: 25px;&quot;&gt;address:&amp;nbsp;&lt;span style=&quot;color: rgb(150, 150, 255);&quot;&gt;string&lt;/span&gt;&lt;/div&gt;" style="text;strokeColor=none;fillColor=none;align=left;verticalAlign=middle;spacingLeft=4;spacingRight=4;overflow=hidden;points=[[0,0.5],[1,0.5]];portConstraint=eastwest;rotatable=0;whiteSpace=wrap;html=1;" vertex="1" parent="2">
                    <mxGeometry y="90" width="210" height="30" as="geometry"/>
                </mxCell>
                <mxCell id="6" value="&lt;div style=&quot;color: rgb(206, 206, 206); background-color: rgb(27, 27, 27); font-family: Consolas, &amp;quot;Courier New&amp;quot;, monospace; font-size: 14px; line-height: 25px;&quot;&gt;description:&amp;nbsp;&lt;span style=&quot;color: rgb(150, 150, 255);&quot;&gt;string&lt;/span&gt;&lt;/div&gt;" style="text;strokeColor=none;fillColor=none;align=left;verticalAlign=middle;spacingLeft=4;spacingRight=4;overflow=hidden;points=[[0,0.5],[1,0.5]];portConstraint=eastwest;rotatable=0;whiteSpace=wrap;html=1;" vertex="1" parent="2">
                    <mxGeometry y="120" width="210" height="30" as="geometry"/>
                </mxCell>
                <mxCell id="7" value="&lt;div style=&quot;color: rgb(206, 206, 206); background-color: rgb(27, 27, 27); font-family: Consolas, &amp;quot;Courier New&amp;quot;, monospace; font-size: 14px; line-height: 25px;&quot;&gt;&lt;span style=&quot;&quot;&gt;logo&lt;/span&gt;:&amp;nbsp;&lt;span style=&quot;color: rgb(150, 150, 255);&quot;&gt;string&lt;/span&gt;&lt;/div&gt;" style="text;strokeColor=none;fillColor=none;align=left;verticalAlign=middle;spacingLeft=4;spacingRight=4;overflow=hidden;points=[[0,0.5],[1,0.5]];portConstraint=eastwest;rotatable=0;whiteSpace=wrap;html=1;" vertex="1" parent="2">
                    <mxGeometry y="150" width="210" height="30" as="geometry"/>
                </mxCell>
                <mxCell id="8" value="&lt;div style=&quot;color: rgb(206, 206, 206); background-color: rgb(27, 27, 27); font-family: Consolas, &amp;quot;Courier New&amp;quot;, monospace; font-size: 14px; line-height: 25px;&quot;&gt;&lt;span style=&quot;&quot;&gt;logoName&lt;/span&gt;:&amp;nbsp;&lt;span style=&quot;color: rgb(150, 150, 255);&quot;&gt;string&lt;/span&gt;&lt;/div&gt;" style="text;strokeColor=none;fillColor=none;align=left;verticalAlign=middle;spacingLeft=4;spacingRight=4;overflow=hidden;points=[[0,0.5],[1,0.5]];portConstraint=eastwest;rotatable=0;whiteSpace=wrap;html=1;" vertex="1" parent="2">
                    <mxGeometry y="180" width="210" height="30" as="geometry"/>
                </mxCell>
                <mxCell id="5" value="&lt;div style=&quot;color: rgb(206, 206, 206); background-color: rgb(27, 27, 27); font-family: Consolas, &amp;quot;Courier New&amp;quot;, monospace; font-size: 14px; line-height: 25px;&quot;&gt;&lt;span style=&quot;&quot;&gt;isDeleted&lt;/span&gt;:&amp;nbsp;&lt;span style=&quot;color: rgb(150, 150, 255);&quot;&gt;boolean&lt;/span&gt;&lt;/div&gt;" style="text;strokeColor=none;fillColor=none;align=left;verticalAlign=middle;spacingLeft=4;spacingRight=4;overflow=hidden;points=[[0,0.5],[1,0.5]];portConstraint=eastwest;rotatable=0;whiteSpace=wrap;html=1;" vertex="1" parent="2">
                    <mxGeometry y="210" width="210" height="30" as="geometry"/>
                </mxCell>
                <mxCell id="9" value="&lt;div style=&quot;color: rgb(206, 206, 206); background-color: rgb(27, 27, 27); font-family: Consolas, &amp;quot;Courier New&amp;quot;, monospace; font-size: 14px; line-height: 25px;&quot;&gt;&lt;span style=&quot;&quot;&gt;createdAt&lt;/span&gt;:&amp;nbsp;&lt;span style=&quot;color: rgb(220, 140, 255);&quot;&gt;Date&lt;/span&gt;&lt;/div&gt;" style="text;strokeColor=none;fillColor=none;align=left;verticalAlign=middle;spacingLeft=4;spacingRight=4;overflow=hidden;points=[[0,0.5],[1,0.5]];portConstraint=eastwest;rotatable=0;whiteSpace=wrap;html=1;" vertex="1" parent="2">
                    <mxGeometry y="240" width="210" height="30" as="geometry"/>
                </mxCell>
                <mxCell id="10" value="&lt;div style=&quot;color: rgb(206, 206, 206); background-color: rgb(27, 27, 27); font-family: Consolas, &amp;quot;Courier New&amp;quot;, monospace; font-size: 14px; line-height: 25px;&quot;&gt;&lt;span style=&quot;&quot;&gt;updatedAt&lt;/span&gt;:&amp;nbsp;&lt;span style=&quot;color: rgb(220, 140, 255);&quot;&gt;Date&lt;/span&gt;&lt;/div&gt;" style="text;strokeColor=none;fillColor=none;align=left;verticalAlign=middle;spacingLeft=4;spacingRight=4;overflow=hidden;points=[[0,0.5],[1,0.5]];portConstraint=eastwest;rotatable=0;whiteSpace=wrap;html=1;" vertex="1" parent="2">
                    <mxGeometry y="270" width="210" height="30" as="geometry"/>
                </mxCell>
                <mxCell id="11" value="&lt;div style=&quot;color: rgb(206, 206, 206); background-color: rgb(27, 27, 27); font-family: Consolas, &amp;quot;Courier New&amp;quot;, monospace; font-size: 14px; line-height: 25px;&quot;&gt;&lt;span style=&quot;&quot;&gt;deletedAt&lt;/span&gt;:&amp;nbsp;&lt;span style=&quot;color: rgb(220, 140, 255);&quot;&gt;Date&lt;/span&gt;&lt;/div&gt;" style="text;strokeColor=none;fillColor=none;align=left;verticalAlign=middle;spacingLeft=4;spacingRight=4;overflow=hidden;points=[[0,0.5],[1,0.5]];portConstraint=eastwest;rotatable=0;whiteSpace=wrap;html=1;" vertex="1" parent="2">
                    <mxGeometry y="300" width="210" height="30" as="geometry"/>
                </mxCell>
                <mxCell id="12" value="&lt;div style=&quot;color: rgb(206, 206, 206); background-color: rgb(27, 27, 27); font-family: Consolas, &amp;quot;Courier New&amp;quot;, monospace; font-size: 14px; line-height: 25px;&quot;&gt;&lt;span style=&quot;&quot;&gt;createdBy&lt;/span&gt;:&amp;nbsp;&lt;span style=&quot;color: rgb(150, 150, 255);&quot;&gt;Object&lt;/span&gt;&lt;/div&gt;" style="text;strokeColor=none;fillColor=none;align=left;verticalAlign=middle;spacingLeft=4;spacingRight=4;overflow=hidden;points=[[0,0.5],[1,0.5]];portConstraint=eastwest;rotatable=0;whiteSpace=wrap;html=1;" vertex="1" parent="2">
                    <mxGeometry y="330" width="210" height="30" as="geometry"/>
                </mxCell>
                <mxCell id="13" value="&lt;div style=&quot;color: rgb(206, 206, 206); background-color: rgb(27, 27, 27); font-family: Consolas, &amp;quot;Courier New&amp;quot;, monospace; font-size: 14px; line-height: 25px;&quot;&gt;&lt;span style=&quot;&quot;&gt;updatedBy&lt;/span&gt;:&amp;nbsp;&lt;span style=&quot;color: rgb(150, 150, 255);&quot;&gt;Object&lt;/span&gt;&lt;/div&gt;" style="text;strokeColor=none;fillColor=none;align=left;verticalAlign=middle;spacingLeft=4;spacingRight=4;overflow=hidden;points=[[0,0.5],[1,0.5]];portConstraint=eastwest;rotatable=0;whiteSpace=wrap;html=1;" vertex="1" parent="2">
                    <mxGeometry y="360" width="210" height="30" as="geometry"/>
                </mxCell>
                <mxCell id="14" value="&lt;div style=&quot;color: rgb(206, 206, 206); background-color: rgb(27, 27, 27); font-family: Consolas, &amp;quot;Courier New&amp;quot;, monospace; font-size: 14px; line-height: 25px;&quot;&gt;&lt;span style=&quot;&quot;&gt;deletedBy&lt;/span&gt;:&amp;nbsp;&lt;span style=&quot;color: rgb(150, 150, 255);&quot;&gt;Object&lt;/span&gt;&lt;/div&gt;" style="text;strokeColor=none;fillColor=none;align=left;verticalAlign=middle;spacingLeft=4;spacingRight=4;overflow=hidden;points=[[0,0.5],[1,0.5]];portConstraint=eastwest;rotatable=0;whiteSpace=wrap;html=1;" vertex="1" parent="2">
                    <mxGeometry y="390" width="210" height="30" as="geometry"/>
                </mxCell>
                <mxCell id="15" value="jobs" style="swimlane;fontStyle=0;childLayout=stackLayout;horizontal=1;startSize=30;horizontalStack=0;resizeParent=1;resizeParentMax=0;resizeLast=0;collapsible=1;marginBottom=0;whiteSpace=wrap;html=1;" vertex="1" parent="1">
                    <mxGeometry x="620" y="210" width="210" height="600" as="geometry"/>
                </mxCell>
                <mxCell id="56" value="&lt;div style=&quot;color: rgb(206, 206, 206); background-color: rgb(27, 27, 27); font-family: Consolas, &amp;quot;Courier New&amp;quot;, monospace; font-size: 14px; line-height: 25px;&quot;&gt;&lt;span style=&quot;&quot;&gt;_id&lt;/span&gt;:&amp;nbsp;&lt;span style=&quot;color: rgb(0, 220, 220);&quot;&gt;ObjectId&lt;/span&gt;&lt;/div&gt;" style="text;strokeColor=none;fillColor=none;align=left;verticalAlign=middle;spacingLeft=4;spacingRight=4;overflow=hidden;points=[[0,0.5],[1,0.5]];portConstraint=eastwest;rotatable=0;whiteSpace=wrap;html=1;" vertex="1" parent="15">
                    <mxGeometry y="30" width="210" height="30" as="geometry"/>
                </mxCell>
                <mxCell id="16" value="&lt;div style=&quot;color: rgb(206, 206, 206); background-color: rgb(27, 27, 27); font-family: Consolas, &amp;quot;Courier New&amp;quot;, monospace; font-size: 14px; line-height: 25px;&quot;&gt;name:&amp;nbsp;&lt;span style=&quot;color: rgb(150, 150, 255);&quot;&gt;string&lt;/span&gt;&lt;/div&gt;" style="text;strokeColor=none;fillColor=none;align=left;verticalAlign=middle;spacingLeft=4;spacingRight=4;overflow=hidden;points=[[0,0.5],[1,0.5]];portConstraint=eastwest;rotatable=0;whiteSpace=wrap;html=1;" vertex="1" parent="15">
                    <mxGeometry y="60" width="210" height="30" as="geometry"/>
                </mxCell>
                <mxCell id="17" value="&lt;div style=&quot;color: rgb(206, 206, 206); background-color: rgb(27, 27, 27); font-family: Consolas, &amp;quot;Courier New&amp;quot;, monospace; font-size: 14px; line-height: 25px;&quot;&gt;&lt;span style=&quot;&quot;&gt;skills&lt;/span&gt;:&amp;nbsp;&lt;span style=&quot;color: rgb(150, 150, 255);&quot;&gt;string&lt;/span&gt;&lt;span style=&quot;&quot;&gt;[]&lt;/span&gt;&lt;/div&gt;" style="text;strokeColor=none;fillColor=none;align=left;verticalAlign=middle;spacingLeft=4;spacingRight=4;overflow=hidden;points=[[0,0.5],[1,0.5]];portConstraint=eastwest;rotatable=0;whiteSpace=wrap;html=1;" vertex="1" parent="15">
                    <mxGeometry y="90" width="210" height="30" as="geometry"/>
                </mxCell>
                <mxCell id="18" value="&lt;div style=&quot;color: rgb(206, 206, 206); background-color: rgb(27, 27, 27); font-family: Consolas, &amp;quot;Courier New&amp;quot;, monospace; font-size: 14px; line-height: 25px;&quot;&gt;&lt;span style=&quot;&quot;&gt;company&lt;/span&gt;:&amp;nbsp;&lt;span style=&quot;color: rgb(0, 220, 220);&quot;&gt;ObjectId&lt;/span&gt;&lt;/div&gt;" style="text;strokeColor=none;fillColor=none;align=left;verticalAlign=middle;spacingLeft=4;spacingRight=4;overflow=hidden;points=[[0,0.5],[1,0.5]];portConstraint=eastwest;rotatable=0;whiteSpace=wrap;html=1;" vertex="1" parent="15">
                    <mxGeometry y="120" width="210" height="30" as="geometry"/>
                </mxCell>
                <mxCell id="19" value="&lt;div style=&quot;color: rgb(206, 206, 206); background-color: rgb(27, 27, 27); font-family: Consolas, &amp;quot;Courier New&amp;quot;, monospace; font-size: 14px; line-height: 25px;&quot;&gt;&lt;span style=&quot;&quot;&gt;location&lt;/span&gt;:&amp;nbsp;&lt;span style=&quot;color: rgb(150, 150, 255);&quot;&gt;string&lt;/span&gt;&lt;/div&gt;" style="text;strokeColor=none;fillColor=none;align=left;verticalAlign=middle;spacingLeft=4;spacingRight=4;overflow=hidden;points=[[0,0.5],[1,0.5]];portConstraint=eastwest;rotatable=0;whiteSpace=wrap;html=1;" vertex="1" parent="15">
                    <mxGeometry y="150" width="210" height="30" as="geometry"/>
                </mxCell>
                <mxCell id="20" value="&lt;div style=&quot;color: rgb(206, 206, 206); background-color: rgb(27, 27, 27); font-family: Consolas, &amp;quot;Courier New&amp;quot;, monospace; font-size: 14px; line-height: 25px;&quot;&gt;&lt;span style=&quot;&quot;&gt;salary&lt;/span&gt;:&amp;nbsp;&lt;span style=&quot;color: rgb(150, 150, 255);&quot;&gt;number&lt;/span&gt;&lt;/div&gt;" style="text;strokeColor=none;fillColor=none;align=left;verticalAlign=middle;spacingLeft=4;spacingRight=4;overflow=hidden;points=[[0,0.5],[1,0.5]];portConstraint=eastwest;rotatable=0;whiteSpace=wrap;html=1;" vertex="1" parent="15">
                    <mxGeometry y="180" width="210" height="30" as="geometry"/>
                </mxCell>
                <mxCell id="28" value="&lt;div style=&quot;color: rgb(206, 206, 206); background-color: rgb(27, 27, 27); font-family: Consolas, &amp;quot;Courier New&amp;quot;, monospace; font-size: 14px; line-height: 25px;&quot;&gt;&lt;span style=&quot;&quot;&gt;quantity&lt;/span&gt;:&amp;nbsp;&lt;span style=&quot;color: rgb(150, 150, 255);&quot;&gt;number&lt;/span&gt;&lt;/div&gt;" style="text;strokeColor=none;fillColor=none;align=left;verticalAlign=middle;spacingLeft=4;spacingRight=4;overflow=hidden;points=[[0,0.5],[1,0.5]];portConstraint=eastwest;rotatable=0;whiteSpace=wrap;html=1;" vertex="1" parent="15">
                    <mxGeometry y="210" width="210" height="30" as="geometry"/>
                </mxCell>
                <mxCell id="30" value="&lt;div style=&quot;color: rgb(206, 206, 206); background-color: rgb(27, 27, 27); font-family: Consolas, &amp;quot;Courier New&amp;quot;, monospace; font-size: 14px; line-height: 25px;&quot;&gt;&lt;span style=&quot;&quot;&gt;level&lt;/span&gt;:&amp;nbsp;&lt;span style=&quot;color: rgb(150, 150, 255);&quot;&gt;string&lt;/span&gt;&lt;/div&gt;" style="text;strokeColor=none;fillColor=none;align=left;verticalAlign=middle;spacingLeft=4;spacingRight=4;overflow=hidden;points=[[0,0.5],[1,0.5]];portConstraint=eastwest;rotatable=0;whiteSpace=wrap;html=1;" vertex="1" parent="15">
                    <mxGeometry y="240" width="210" height="30" as="geometry"/>
                </mxCell>
                <mxCell id="31" value="&lt;div style=&quot;color: rgb(206, 206, 206); background-color: rgb(27, 27, 27); font-family: Consolas, &amp;quot;Courier New&amp;quot;, monospace; font-size: 14px; line-height: 25px;&quot;&gt;&lt;span style=&quot;&quot;&gt;description&lt;/span&gt;:&amp;nbsp;&lt;span style=&quot;color: rgb(150, 150, 255);&quot;&gt;string&lt;/span&gt;&lt;/div&gt;" style="text;strokeColor=none;fillColor=none;align=left;verticalAlign=middle;spacingLeft=4;spacingRight=4;overflow=hidden;points=[[0,0.5],[1,0.5]];portConstraint=eastwest;rotatable=0;whiteSpace=wrap;html=1;" vertex="1" parent="15">
                    <mxGeometry y="270" width="210" height="30" as="geometry"/>
                </mxCell>
                <mxCell id="32" value="&lt;div style=&quot;color: rgb(206, 206, 206); background-color: rgb(27, 27, 27); font-family: Consolas, &amp;quot;Courier New&amp;quot;, monospace; font-size: 14px; line-height: 25px;&quot;&gt;&lt;span style=&quot;&quot;&gt;startDate&lt;/span&gt;:&amp;nbsp;&lt;span style=&quot;color: rgb(220, 140, 255);&quot;&gt;Date&lt;/span&gt;&lt;/div&gt;" style="text;strokeColor=none;fillColor=none;align=left;verticalAlign=middle;spacingLeft=4;spacingRight=4;overflow=hidden;points=[[0,0.5],[1,0.5]];portConstraint=eastwest;rotatable=0;whiteSpace=wrap;html=1;" vertex="1" parent="15">
                    <mxGeometry y="300" width="210" height="30" as="geometry"/>
                </mxCell>
                <mxCell id="33" value="&lt;div style=&quot;color: rgb(206, 206, 206); background-color: rgb(27, 27, 27); font-family: Consolas, &amp;quot;Courier New&amp;quot;, monospace; font-size: 14px; line-height: 25px;&quot;&gt;&lt;span style=&quot;&quot;&gt;endDate&lt;/span&gt;:&amp;nbsp;&lt;span style=&quot;color: rgb(220, 140, 255);&quot;&gt;Date&lt;/span&gt;&lt;/div&gt;" style="text;strokeColor=none;fillColor=none;align=left;verticalAlign=middle;spacingLeft=4;spacingRight=4;overflow=hidden;points=[[0,0.5],[1,0.5]];portConstraint=eastwest;rotatable=0;whiteSpace=wrap;html=1;" vertex="1" parent="15">
                    <mxGeometry y="330" width="210" height="30" as="geometry"/>
                </mxCell>
                <mxCell id="34" value="&lt;div style=&quot;color: rgb(206, 206, 206); background-color: rgb(27, 27, 27); font-family: Consolas, &amp;quot;Courier New&amp;quot;, monospace; font-size: 14px; line-height: 25px;&quot;&gt;&lt;span style=&quot;&quot;&gt;isDeleted&lt;/span&gt;:&amp;nbsp;&lt;span style=&quot;color: rgb(150, 150, 255);&quot;&gt;boolean&lt;/span&gt;&lt;/div&gt;" style="text;strokeColor=none;fillColor=none;align=left;verticalAlign=middle;spacingLeft=4;spacingRight=4;overflow=hidden;points=[[0,0.5],[1,0.5]];portConstraint=eastwest;rotatable=0;whiteSpace=wrap;html=1;" vertex="1" parent="15">
                    <mxGeometry y="360" width="210" height="30" as="geometry"/>
                </mxCell>
                <mxCell id="21" value="&lt;div style=&quot;color: rgb(206, 206, 206); background-color: rgb(27, 27, 27); font-family: Consolas, &amp;quot;Courier New&amp;quot;, monospace; font-size: 14px; line-height: 25px;&quot;&gt;&lt;span style=&quot;&quot;&gt;isDeleted&lt;/span&gt;:&amp;nbsp;&lt;span style=&quot;color: rgb(150, 150, 255);&quot;&gt;boolean&lt;/span&gt;&lt;/div&gt;" style="text;strokeColor=none;fillColor=none;align=left;verticalAlign=middle;spacingLeft=4;spacingRight=4;overflow=hidden;points=[[0,0.5],[1,0.5]];portConstraint=eastwest;rotatable=0;whiteSpace=wrap;html=1;" vertex="1" parent="15">
                    <mxGeometry y="390" width="210" height="30" as="geometry"/>
                </mxCell>
                <mxCell id="22" value="&lt;div style=&quot;color: rgb(206, 206, 206); background-color: rgb(27, 27, 27); font-family: Consolas, &amp;quot;Courier New&amp;quot;, monospace; font-size: 14px; line-height: 25px;&quot;&gt;&lt;span style=&quot;&quot;&gt;createdAt&lt;/span&gt;:&amp;nbsp;&lt;span style=&quot;color: rgb(220, 140, 255);&quot;&gt;Date&lt;/span&gt;&lt;/div&gt;" style="text;strokeColor=none;fillColor=none;align=left;verticalAlign=middle;spacingLeft=4;spacingRight=4;overflow=hidden;points=[[0,0.5],[1,0.5]];portConstraint=eastwest;rotatable=0;whiteSpace=wrap;html=1;" vertex="1" parent="15">
                    <mxGeometry y="420" width="210" height="30" as="geometry"/>
                </mxCell>
                <mxCell id="23" value="&lt;div style=&quot;color: rgb(206, 206, 206); background-color: rgb(27, 27, 27); font-family: Consolas, &amp;quot;Courier New&amp;quot;, monospace; font-size: 14px; line-height: 25px;&quot;&gt;&lt;span style=&quot;&quot;&gt;updatedAt&lt;/span&gt;:&amp;nbsp;&lt;span style=&quot;color: rgb(220, 140, 255);&quot;&gt;Date&lt;/span&gt;&lt;/div&gt;" style="text;strokeColor=none;fillColor=none;align=left;verticalAlign=middle;spacingLeft=4;spacingRight=4;overflow=hidden;points=[[0,0.5],[1,0.5]];portConstraint=eastwest;rotatable=0;whiteSpace=wrap;html=1;" vertex="1" parent="15">
                    <mxGeometry y="450" width="210" height="30" as="geometry"/>
                </mxCell>
                <mxCell id="24" value="&lt;div style=&quot;color: rgb(206, 206, 206); background-color: rgb(27, 27, 27); font-family: Consolas, &amp;quot;Courier New&amp;quot;, monospace; font-size: 14px; line-height: 25px;&quot;&gt;&lt;span style=&quot;&quot;&gt;deletedAt&lt;/span&gt;:&amp;nbsp;&lt;span style=&quot;color: rgb(220, 140, 255);&quot;&gt;Date&lt;/span&gt;&lt;/div&gt;" style="text;strokeColor=none;fillColor=none;align=left;verticalAlign=middle;spacingLeft=4;spacingRight=4;overflow=hidden;points=[[0,0.5],[1,0.5]];portConstraint=eastwest;rotatable=0;whiteSpace=wrap;html=1;" vertex="1" parent="15">
                    <mxGeometry y="480" width="210" height="30" as="geometry"/>
                </mxCell>
                <mxCell id="25" value="&lt;div style=&quot;color: rgb(206, 206, 206); background-color: rgb(27, 27, 27); font-family: Consolas, &amp;quot;Courier New&amp;quot;, monospace; font-size: 14px; line-height: 25px;&quot;&gt;&lt;span style=&quot;&quot;&gt;createdBy&lt;/span&gt;:&amp;nbsp;&lt;span style=&quot;color: rgb(150, 150, 255);&quot;&gt;Object&lt;/span&gt;&lt;/div&gt;" style="text;strokeColor=none;fillColor=none;align=left;verticalAlign=middle;spacingLeft=4;spacingRight=4;overflow=hidden;points=[[0,0.5],[1,0.5]];portConstraint=eastwest;rotatable=0;whiteSpace=wrap;html=1;" vertex="1" parent="15">
                    <mxGeometry y="510" width="210" height="30" as="geometry"/>
                </mxCell>
                <mxCell id="26" value="&lt;div style=&quot;color: rgb(206, 206, 206); background-color: rgb(27, 27, 27); font-family: Consolas, &amp;quot;Courier New&amp;quot;, monospace; font-size: 14px; line-height: 25px;&quot;&gt;&lt;span style=&quot;&quot;&gt;updatedBy&lt;/span&gt;:&amp;nbsp;&lt;span style=&quot;color: rgb(150, 150, 255);&quot;&gt;Object&lt;/span&gt;&lt;/div&gt;" style="text;strokeColor=none;fillColor=none;align=left;verticalAlign=middle;spacingLeft=4;spacingRight=4;overflow=hidden;points=[[0,0.5],[1,0.5]];portConstraint=eastwest;rotatable=0;whiteSpace=wrap;html=1;" vertex="1" parent="15">
                    <mxGeometry y="540" width="210" height="30" as="geometry"/>
                </mxCell>
                <mxCell id="27" value="&lt;div style=&quot;color: rgb(206, 206, 206); background-color: rgb(27, 27, 27); font-family: Consolas, &amp;quot;Courier New&amp;quot;, monospace; font-size: 14px; line-height: 25px;&quot;&gt;&lt;span style=&quot;&quot;&gt;deletedBy&lt;/span&gt;:&amp;nbsp;&lt;span style=&quot;color: rgb(150, 150, 255);&quot;&gt;Object&lt;/span&gt;&lt;/div&gt;" style="text;strokeColor=none;fillColor=none;align=left;verticalAlign=middle;spacingLeft=4;spacingRight=4;overflow=hidden;points=[[0,0.5],[1,0.5]];portConstraint=eastwest;rotatable=0;whiteSpace=wrap;html=1;" vertex="1" parent="15">
                    <mxGeometry y="570" width="210" height="30" as="geometry"/>
                </mxCell>
                <mxCell id="35" value="permissions" style="swimlane;fontStyle=0;childLayout=stackLayout;horizontal=1;startSize=30;horizontalStack=0;resizeParent=1;resizeParentMax=0;resizeLast=0;collapsible=1;marginBottom=0;whiteSpace=wrap;html=1;" vertex="1" parent="1">
                    <mxGeometry x="1120" y="220" width="210" height="420" as="geometry"/>
                </mxCell>
                <mxCell id="58" value="&lt;div style=&quot;color: rgb(206, 206, 206); background-color: rgb(27, 27, 27); font-family: Consolas, &amp;quot;Courier New&amp;quot;, monospace; font-size: 14px; line-height: 25px;&quot;&gt;&lt;span style=&quot;&quot;&gt;_id&lt;/span&gt;:&amp;nbsp;&lt;span style=&quot;color: rgb(0, 220, 220);&quot;&gt;ObjectId&lt;/span&gt;&lt;/div&gt;" style="text;strokeColor=none;fillColor=none;align=left;verticalAlign=middle;spacingLeft=4;spacingRight=4;overflow=hidden;points=[[0,0.5],[1,0.5]];portConstraint=eastwest;rotatable=0;whiteSpace=wrap;html=1;" vertex="1" parent="35">
                    <mxGeometry y="30" width="210" height="30" as="geometry"/>
                </mxCell>
                <mxCell id="36" value="&lt;div style=&quot;color: rgb(206, 206, 206); background-color: rgb(27, 27, 27); font-family: Consolas, &amp;quot;Courier New&amp;quot;, monospace; font-size: 14px; line-height: 25px;&quot;&gt;name:&amp;nbsp;&lt;span style=&quot;color: rgb(150, 150, 255);&quot;&gt;string&lt;/span&gt;&lt;/div&gt;" style="text;strokeColor=none;fillColor=none;align=left;verticalAlign=middle;spacingLeft=4;spacingRight=4;overflow=hidden;points=[[0,0.5],[1,0.5]];portConstraint=eastwest;rotatable=0;whiteSpace=wrap;html=1;" vertex="1" parent="35">
                    <mxGeometry y="60" width="210" height="30" as="geometry"/>
                </mxCell>
                <mxCell id="37" value="&lt;div style=&quot;color: rgb(206, 206, 206); background-color: rgb(27, 27, 27); font-family: Consolas, &amp;quot;Courier New&amp;quot;, monospace; font-size: 14px; line-height: 25px;&quot;&gt;&lt;span style=&quot;&quot;&gt;apiPath&lt;/span&gt;:&amp;nbsp;&lt;span style=&quot;color: rgb(150, 150, 255);&quot;&gt;string&lt;/span&gt;&lt;/div&gt;" style="text;strokeColor=none;fillColor=none;align=left;verticalAlign=middle;spacingLeft=4;spacingRight=4;overflow=hidden;points=[[0,0.5],[1,0.5]];portConstraint=eastwest;rotatable=0;whiteSpace=wrap;html=1;" vertex="1" parent="35">
                    <mxGeometry y="90" width="210" height="30" as="geometry"/>
                </mxCell>
                <mxCell id="38" value="&lt;div style=&quot;color: rgb(206, 206, 206); background-color: rgb(27, 27, 27); font-family: Consolas, &amp;quot;Courier New&amp;quot;, monospace; font-size: 14px; line-height: 25px;&quot;&gt;&lt;span style=&quot;&quot;&gt;method&lt;/span&gt;:&amp;nbsp;&lt;span style=&quot;color: rgb(150, 150, 255);&quot;&gt;string&lt;/span&gt;&lt;/div&gt;" style="text;strokeColor=none;fillColor=none;align=left;verticalAlign=middle;spacingLeft=4;spacingRight=4;overflow=hidden;points=[[0,0.5],[1,0.5]];portConstraint=eastwest;rotatable=0;whiteSpace=wrap;html=1;" vertex="1" parent="35">
                    <mxGeometry y="120" width="210" height="30" as="geometry"/>
                </mxCell>
                <mxCell id="39" value="&lt;div style=&quot;color: rgb(206, 206, 206); background-color: rgb(27, 27, 27); font-family: Consolas, &amp;quot;Courier New&amp;quot;, monospace; font-size: 14px; line-height: 25px;&quot;&gt;&lt;span style=&quot;&quot;&gt;module&lt;/span&gt;:&amp;nbsp;&lt;span style=&quot;color: rgb(150, 150, 255);&quot;&gt;string&lt;/span&gt;&lt;/div&gt;" style="text;strokeColor=none;fillColor=none;align=left;verticalAlign=middle;spacingLeft=4;spacingRight=4;overflow=hidden;points=[[0,0.5],[1,0.5]];portConstraint=eastwest;rotatable=0;whiteSpace=wrap;html=1;" vertex="1" parent="35">
                    <mxGeometry y="150" width="210" height="30" as="geometry"/>
                </mxCell>
                <mxCell id="46" value="&lt;div style=&quot;color: rgb(206, 206, 206); background-color: rgb(27, 27, 27); font-family: Consolas, &amp;quot;Courier New&amp;quot;, monospace; font-size: 14px; line-height: 25px;&quot;&gt;&lt;span style=&quot;&quot;&gt;isDeleted&lt;/span&gt;:&amp;nbsp;&lt;span style=&quot;color: rgb(150, 150, 255);&quot;&gt;boolean&lt;/span&gt;&lt;/div&gt;" style="text;strokeColor=none;fillColor=none;align=left;verticalAlign=middle;spacingLeft=4;spacingRight=4;overflow=hidden;points=[[0,0.5],[1,0.5]];portConstraint=eastwest;rotatable=0;whiteSpace=wrap;html=1;" vertex="1" parent="35">
                    <mxGeometry y="180" width="210" height="30" as="geometry"/>
                </mxCell>
                <mxCell id="47" value="&lt;div style=&quot;color: rgb(206, 206, 206); background-color: rgb(27, 27, 27); font-family: Consolas, &amp;quot;Courier New&amp;quot;, monospace; font-size: 14px; line-height: 25px;&quot;&gt;&lt;span style=&quot;&quot;&gt;isDeleted&lt;/span&gt;:&amp;nbsp;&lt;span style=&quot;color: rgb(150, 150, 255);&quot;&gt;boolean&lt;/span&gt;&lt;/div&gt;" style="text;strokeColor=none;fillColor=none;align=left;verticalAlign=middle;spacingLeft=4;spacingRight=4;overflow=hidden;points=[[0,0.5],[1,0.5]];portConstraint=eastwest;rotatable=0;whiteSpace=wrap;html=1;" vertex="1" parent="35">
                    <mxGeometry y="210" width="210" height="30" as="geometry"/>
                </mxCell>
                <mxCell id="48" value="&lt;div style=&quot;color: rgb(206, 206, 206); background-color: rgb(27, 27, 27); font-family: Consolas, &amp;quot;Courier New&amp;quot;, monospace; font-size: 14px; line-height: 25px;&quot;&gt;&lt;span style=&quot;&quot;&gt;createdAt&lt;/span&gt;:&amp;nbsp;&lt;span style=&quot;color: rgb(220, 140, 255);&quot;&gt;Date&lt;/span&gt;&lt;/div&gt;" style="text;strokeColor=none;fillColor=none;align=left;verticalAlign=middle;spacingLeft=4;spacingRight=4;overflow=hidden;points=[[0,0.5],[1,0.5]];portConstraint=eastwest;rotatable=0;whiteSpace=wrap;html=1;" vertex="1" parent="35">
                    <mxGeometry y="240" width="210" height="30" as="geometry"/>
                </mxCell>
                <mxCell id="49" value="&lt;div style=&quot;color: rgb(206, 206, 206); background-color: rgb(27, 27, 27); font-family: Consolas, &amp;quot;Courier New&amp;quot;, monospace; font-size: 14px; line-height: 25px;&quot;&gt;&lt;span style=&quot;&quot;&gt;updatedAt&lt;/span&gt;:&amp;nbsp;&lt;span style=&quot;color: rgb(220, 140, 255);&quot;&gt;Date&lt;/span&gt;&lt;/div&gt;" style="text;strokeColor=none;fillColor=none;align=left;verticalAlign=middle;spacingLeft=4;spacingRight=4;overflow=hidden;points=[[0,0.5],[1,0.5]];portConstraint=eastwest;rotatable=0;whiteSpace=wrap;html=1;" vertex="1" parent="35">
                    <mxGeometry y="270" width="210" height="30" as="geometry"/>
                </mxCell>
                <mxCell id="50" value="&lt;div style=&quot;color: rgb(206, 206, 206); background-color: rgb(27, 27, 27); font-family: Consolas, &amp;quot;Courier New&amp;quot;, monospace; font-size: 14px; line-height: 25px;&quot;&gt;&lt;span style=&quot;&quot;&gt;deletedAt&lt;/span&gt;:&amp;nbsp;&lt;span style=&quot;color: rgb(220, 140, 255);&quot;&gt;Date&lt;/span&gt;&lt;/div&gt;" style="text;strokeColor=none;fillColor=none;align=left;verticalAlign=middle;spacingLeft=4;spacingRight=4;overflow=hidden;points=[[0,0.5],[1,0.5]];portConstraint=eastwest;rotatable=0;whiteSpace=wrap;html=1;" vertex="1" parent="35">
                    <mxGeometry y="300" width="210" height="30" as="geometry"/>
                </mxCell>
                <mxCell id="51" value="&lt;div style=&quot;color: rgb(206, 206, 206); background-color: rgb(27, 27, 27); font-family: Consolas, &amp;quot;Courier New&amp;quot;, monospace; font-size: 14px; line-height: 25px;&quot;&gt;&lt;span style=&quot;&quot;&gt;createdBy&lt;/span&gt;:&amp;nbsp;&lt;span style=&quot;color: rgb(150, 150, 255);&quot;&gt;Object&lt;/span&gt;&lt;/div&gt;" style="text;strokeColor=none;fillColor=none;align=left;verticalAlign=middle;spacingLeft=4;spacingRight=4;overflow=hidden;points=[[0,0.5],[1,0.5]];portConstraint=eastwest;rotatable=0;whiteSpace=wrap;html=1;" vertex="1" parent="35">
                    <mxGeometry y="330" width="210" height="30" as="geometry"/>
                </mxCell>
                <mxCell id="52" value="&lt;div style=&quot;color: rgb(206, 206, 206); background-color: rgb(27, 27, 27); font-family: Consolas, &amp;quot;Courier New&amp;quot;, monospace; font-size: 14px; line-height: 25px;&quot;&gt;&lt;span style=&quot;&quot;&gt;updatedBy&lt;/span&gt;:&amp;nbsp;&lt;span style=&quot;color: rgb(150, 150, 255);&quot;&gt;Object&lt;/span&gt;&lt;/div&gt;" style="text;strokeColor=none;fillColor=none;align=left;verticalAlign=middle;spacingLeft=4;spacingRight=4;overflow=hidden;points=[[0,0.5],[1,0.5]];portConstraint=eastwest;rotatable=0;whiteSpace=wrap;html=1;" vertex="1" parent="35">
                    <mxGeometry y="360" width="210" height="30" as="geometry"/>
                </mxCell>
                <mxCell id="53" value="&lt;div style=&quot;color: rgb(206, 206, 206); background-color: rgb(27, 27, 27); font-family: Consolas, &amp;quot;Courier New&amp;quot;, monospace; font-size: 14px; line-height: 25px;&quot;&gt;&lt;span style=&quot;&quot;&gt;deletedBy&lt;/span&gt;:&amp;nbsp;&lt;span style=&quot;color: rgb(150, 150, 255);&quot;&gt;Object&lt;/span&gt;&lt;/div&gt;" style="text;strokeColor=none;fillColor=none;align=left;verticalAlign=middle;spacingLeft=4;spacingRight=4;overflow=hidden;points=[[0,0.5],[1,0.5]];portConstraint=eastwest;rotatable=0;whiteSpace=wrap;html=1;" vertex="1" parent="35">
                    <mxGeometry y="390" width="210" height="30" as="geometry"/>
                </mxCell>
                <mxCell id="73" value="resumes" style="swimlane;fontStyle=0;childLayout=stackLayout;horizontal=1;startSize=30;horizontalStack=0;resizeParent=1;resizeParentMax=0;resizeLast=0;collapsible=1;marginBottom=0;whiteSpace=wrap;html=1;" vertex="1" parent="1">
                    <mxGeometry x="1120" y="965" width="210" height="540" as="geometry"/>
                </mxCell>
                <mxCell id="74" value="&lt;div style=&quot;color: rgb(206, 206, 206); background-color: rgb(27, 27, 27); font-family: Consolas, &amp;quot;Courier New&amp;quot;, monospace; font-size: 14px; line-height: 25px;&quot;&gt;&lt;span style=&quot;&quot;&gt;_id&lt;/span&gt;:&amp;nbsp;&lt;span style=&quot;color: rgb(0, 220, 220);&quot;&gt;ObjectId&lt;/span&gt;&lt;/div&gt;" style="text;strokeColor=none;fillColor=none;align=left;verticalAlign=middle;spacingLeft=4;spacingRight=4;overflow=hidden;points=[[0,0.5],[1,0.5]];portConstraint=eastwest;rotatable=0;whiteSpace=wrap;html=1;" vertex="1" parent="73">
                    <mxGeometry y="30" width="210" height="30" as="geometry"/>
                </mxCell>
                <mxCell id="75" value="&lt;div style=&quot;color: rgb(206, 206, 206); background-color: rgb(27, 27, 27); font-family: Consolas, &amp;quot;Courier New&amp;quot;, monospace; font-size: 14px; line-height: 25px;&quot;&gt;&lt;span style=&quot;&quot;&gt;email&lt;/span&gt;:&amp;nbsp;&lt;span style=&quot;color: rgb(150, 150, 255);&quot;&gt;string&lt;/span&gt;&lt;/div&gt;" style="text;strokeColor=none;fillColor=none;align=left;verticalAlign=middle;spacingLeft=4;spacingRight=4;overflow=hidden;points=[[0,0.5],[1,0.5]];portConstraint=eastwest;rotatable=0;whiteSpace=wrap;html=1;" vertex="1" parent="73">
                    <mxGeometry y="60" width="210" height="30" as="geometry"/>
                </mxCell>
                <mxCell id="93" value="&lt;div style=&quot;color: rgb(206, 206, 206); background-color: rgb(27, 27, 27); font-family: Consolas, &amp;quot;Courier New&amp;quot;, monospace; font-size: 14px; line-height: 25px;&quot;&gt;&lt;span style=&quot;&quot;&gt;user&lt;/span&gt;:&amp;nbsp;&lt;span style=&quot;color: rgb(0, 220, 220);&quot;&gt;ObjectId&lt;/span&gt;&lt;/div&gt;" style="text;strokeColor=none;fillColor=none;align=left;verticalAlign=middle;spacingLeft=4;spacingRight=4;overflow=hidden;points=[[0,0.5],[1,0.5]];portConstraint=eastwest;rotatable=0;whiteSpace=wrap;html=1;" vertex="1" parent="73">
                    <mxGeometry y="90" width="210" height="30" as="geometry"/>
                </mxCell>
                <mxCell id="77" value="&lt;div style=&quot;color: rgb(206, 206, 206); background-color: rgb(27, 27, 27); font-family: Consolas, &amp;quot;Courier New&amp;quot;, monospace; font-size: 14px; line-height: 25px;&quot;&gt;&lt;span style=&quot;&quot;&gt;url&lt;/span&gt;:&amp;nbsp;&lt;span style=&quot;color: rgb(150, 150, 255);&quot;&gt;string&lt;/span&gt;&lt;/div&gt;" style="text;strokeColor=none;fillColor=none;align=left;verticalAlign=middle;spacingLeft=4;spacingRight=4;overflow=hidden;points=[[0,0.5],[1,0.5]];portConstraint=eastwest;rotatable=0;whiteSpace=wrap;html=1;" vertex="1" parent="73">
                    <mxGeometry y="120" width="210" height="30" as="geometry"/>
                </mxCell>
                <mxCell id="78" value="&lt;div style=&quot;color: rgb(206, 206, 206); background-color: rgb(27, 27, 27); font-family: Consolas, &amp;quot;Courier New&amp;quot;, monospace; font-size: 14px; line-height: 25px;&quot;&gt;&lt;span style=&quot;&quot;&gt;status&lt;/span&gt;:&amp;nbsp;&lt;span style=&quot;color: rgb(150, 150, 255);&quot;&gt;string&lt;/span&gt;&lt;/div&gt;" style="text;strokeColor=none;fillColor=none;align=left;verticalAlign=middle;spacingLeft=4;spacingRight=4;overflow=hidden;points=[[0,0.5],[1,0.5]];portConstraint=eastwest;rotatable=0;whiteSpace=wrap;html=1;" vertex="1" parent="73">
                    <mxGeometry y="150" width="210" height="30" as="geometry"/>
                </mxCell>
                <mxCell id="79" value="&lt;div style=&quot;color: rgb(206, 206, 206); background-color: rgb(27, 27, 27); font-family: Consolas, &amp;quot;Courier New&amp;quot;, monospace; font-size: 14px; line-height: 25px;&quot;&gt;&lt;span style=&quot;&quot;&gt;company&lt;/span&gt;:&amp;nbsp;&lt;span style=&quot;color: rgb(0, 220, 220);&quot;&gt;ObjectId&lt;/span&gt;&lt;/div&gt;" style="text;strokeColor=none;fillColor=none;align=left;verticalAlign=middle;spacingLeft=4;spacingRight=4;overflow=hidden;points=[[0,0.5],[1,0.5]];portConstraint=eastwest;rotatable=0;whiteSpace=wrap;html=1;" vertex="1" parent="73">
                    <mxGeometry y="180" width="210" height="30" as="geometry"/>
                </mxCell>
                <mxCell id="80" value="&lt;div style=&quot;color: rgb(206, 206, 206); background-color: rgb(27, 27, 27); font-family: Consolas, &amp;quot;Courier New&amp;quot;, monospace; font-size: 14px; line-height: 25px;&quot;&gt;&lt;span style=&quot;&quot;&gt;job&lt;/span&gt;:&amp;nbsp;&lt;span style=&quot;color: rgb(0, 220, 220);&quot;&gt;ObjectId&lt;/span&gt;&lt;/div&gt;" style="text;strokeColor=none;fillColor=none;align=left;verticalAlign=middle;spacingLeft=4;spacingRight=4;overflow=hidden;points=[[0,0.5],[1,0.5]];portConstraint=eastwest;rotatable=0;whiteSpace=wrap;html=1;" vertex="1" parent="73">
                    <mxGeometry y="210" width="210" height="30" as="geometry"/>
                </mxCell>
                <mxCell id="81" value="&lt;div style=&quot;background-color: rgb(27, 27, 27); font-family: Consolas, &amp;quot;Courier New&amp;quot;, monospace; font-size: 14px; line-height: 25px;&quot;&gt;&lt;span style=&quot;color: rgb(206, 206, 206);&quot;&gt;&lt;span style=&quot;&quot;&gt;history&lt;/span&gt;: &lt;/span&gt;&lt;font color=&quot;#9696ff&quot;&gt;array&lt;/font&gt;&lt;/div&gt;" style="text;strokeColor=none;fillColor=none;align=left;verticalAlign=middle;spacingLeft=4;spacingRight=4;overflow=hidden;points=[[0,0.5],[1,0.5]];portConstraint=eastwest;rotatable=0;whiteSpace=wrap;html=1;" vertex="1" parent="73">
                    <mxGeometry y="240" width="210" height="30" as="geometry"/>
                </mxCell>
                <mxCell id="82" value="&lt;div style=&quot;color: rgb(206, 206, 206); background-color: rgb(27, 27, 27); font-family: Consolas, &amp;quot;Courier New&amp;quot;, monospace; font-size: 14px; line-height: 25px;&quot;&gt;&lt;span style=&quot;&quot;&gt;description&lt;/span&gt;:&amp;nbsp;&lt;span style=&quot;color: rgb(150, 150, 255);&quot;&gt;string&lt;/span&gt;&lt;/div&gt;" style="text;strokeColor=none;fillColor=none;align=left;verticalAlign=middle;spacingLeft=4;spacingRight=4;overflow=hidden;points=[[0,0.5],[1,0.5]];portConstraint=eastwest;rotatable=0;whiteSpace=wrap;html=1;" vertex="1" parent="73">
                    <mxGeometry y="270" width="210" height="30" as="geometry"/>
                </mxCell>
                <mxCell id="85" value="&lt;div style=&quot;color: rgb(206, 206, 206); background-color: rgb(27, 27, 27); font-family: Consolas, &amp;quot;Courier New&amp;quot;, monospace; font-size: 14px; line-height: 25px;&quot;&gt;&lt;span style=&quot;&quot;&gt;isDeleted&lt;/span&gt;:&amp;nbsp;&lt;span style=&quot;color: rgb(150, 150, 255);&quot;&gt;boolean&lt;/span&gt;&lt;/div&gt;" style="text;strokeColor=none;fillColor=none;align=left;verticalAlign=middle;spacingLeft=4;spacingRight=4;overflow=hidden;points=[[0,0.5],[1,0.5]];portConstraint=eastwest;rotatable=0;whiteSpace=wrap;html=1;" vertex="1" parent="73">
                    <mxGeometry y="300" width="210" height="30" as="geometry"/>
                </mxCell>
                <mxCell id="86" value="&lt;div style=&quot;color: rgb(206, 206, 206); background-color: rgb(27, 27, 27); font-family: Consolas, &amp;quot;Courier New&amp;quot;, monospace; font-size: 14px; line-height: 25px;&quot;&gt;&lt;span style=&quot;&quot;&gt;isDeleted&lt;/span&gt;:&amp;nbsp;&lt;span style=&quot;color: rgb(150, 150, 255);&quot;&gt;boolean&lt;/span&gt;&lt;/div&gt;" style="text;strokeColor=none;fillColor=none;align=left;verticalAlign=middle;spacingLeft=4;spacingRight=4;overflow=hidden;points=[[0,0.5],[1,0.5]];portConstraint=eastwest;rotatable=0;whiteSpace=wrap;html=1;" vertex="1" parent="73">
                    <mxGeometry y="330" width="210" height="30" as="geometry"/>
                </mxCell>
                <mxCell id="87" value="&lt;div style=&quot;color: rgb(206, 206, 206); background-color: rgb(27, 27, 27); font-family: Consolas, &amp;quot;Courier New&amp;quot;, monospace; font-size: 14px; line-height: 25px;&quot;&gt;&lt;span style=&quot;&quot;&gt;createdAt&lt;/span&gt;:&amp;nbsp;&lt;span style=&quot;color: rgb(220, 140, 255);&quot;&gt;Date&lt;/span&gt;&lt;/div&gt;" style="text;strokeColor=none;fillColor=none;align=left;verticalAlign=middle;spacingLeft=4;spacingRight=4;overflow=hidden;points=[[0,0.5],[1,0.5]];portConstraint=eastwest;rotatable=0;whiteSpace=wrap;html=1;" vertex="1" parent="73">
                    <mxGeometry y="360" width="210" height="30" as="geometry"/>
                </mxCell>
                <mxCell id="88" value="&lt;div style=&quot;color: rgb(206, 206, 206); background-color: rgb(27, 27, 27); font-family: Consolas, &amp;quot;Courier New&amp;quot;, monospace; font-size: 14px; line-height: 25px;&quot;&gt;&lt;span style=&quot;&quot;&gt;updatedAt&lt;/span&gt;:&amp;nbsp;&lt;span style=&quot;color: rgb(220, 140, 255);&quot;&gt;Date&lt;/span&gt;&lt;/div&gt;" style="text;strokeColor=none;fillColor=none;align=left;verticalAlign=middle;spacingLeft=4;spacingRight=4;overflow=hidden;points=[[0,0.5],[1,0.5]];portConstraint=eastwest;rotatable=0;whiteSpace=wrap;html=1;" vertex="1" parent="73">
                    <mxGeometry y="390" width="210" height="30" as="geometry"/>
                </mxCell>
                <mxCell id="89" value="&lt;div style=&quot;color: rgb(206, 206, 206); background-color: rgb(27, 27, 27); font-family: Consolas, &amp;quot;Courier New&amp;quot;, monospace; font-size: 14px; line-height: 25px;&quot;&gt;&lt;span style=&quot;&quot;&gt;deletedAt&lt;/span&gt;:&amp;nbsp;&lt;span style=&quot;color: rgb(220, 140, 255);&quot;&gt;Date&lt;/span&gt;&lt;/div&gt;" style="text;strokeColor=none;fillColor=none;align=left;verticalAlign=middle;spacingLeft=4;spacingRight=4;overflow=hidden;points=[[0,0.5],[1,0.5]];portConstraint=eastwest;rotatable=0;whiteSpace=wrap;html=1;" vertex="1" parent="73">
                    <mxGeometry y="420" width="210" height="30" as="geometry"/>
                </mxCell>
                <mxCell id="90" value="&lt;div style=&quot;color: rgb(206, 206, 206); background-color: rgb(27, 27, 27); font-family: Consolas, &amp;quot;Courier New&amp;quot;, monospace; font-size: 14px; line-height: 25px;&quot;&gt;&lt;span style=&quot;&quot;&gt;createdBy&lt;/span&gt;:&amp;nbsp;&lt;span style=&quot;color: rgb(150, 150, 255);&quot;&gt;Object&lt;/span&gt;&lt;/div&gt;" style="text;strokeColor=none;fillColor=none;align=left;verticalAlign=middle;spacingLeft=4;spacingRight=4;overflow=hidden;points=[[0,0.5],[1,0.5]];portConstraint=eastwest;rotatable=0;whiteSpace=wrap;html=1;" vertex="1" parent="73">
                    <mxGeometry y="450" width="210" height="30" as="geometry"/>
                </mxCell>
                <mxCell id="91" value="&lt;div style=&quot;color: rgb(206, 206, 206); background-color: rgb(27, 27, 27); font-family: Consolas, &amp;quot;Courier New&amp;quot;, monospace; font-size: 14px; line-height: 25px;&quot;&gt;&lt;span style=&quot;&quot;&gt;updatedBy&lt;/span&gt;:&amp;nbsp;&lt;span style=&quot;color: rgb(150, 150, 255);&quot;&gt;Object&lt;/span&gt;&lt;/div&gt;" style="text;strokeColor=none;fillColor=none;align=left;verticalAlign=middle;spacingLeft=4;spacingRight=4;overflow=hidden;points=[[0,0.5],[1,0.5]];portConstraint=eastwest;rotatable=0;whiteSpace=wrap;html=1;" vertex="1" parent="73">
                    <mxGeometry y="480" width="210" height="30" as="geometry"/>
                </mxCell>
                <mxCell id="92" value="&lt;div style=&quot;color: rgb(206, 206, 206); background-color: rgb(27, 27, 27); font-family: Consolas, &amp;quot;Courier New&amp;quot;, monospace; font-size: 14px; line-height: 25px;&quot;&gt;&lt;span style=&quot;&quot;&gt;deletedBy&lt;/span&gt;:&amp;nbsp;&lt;span style=&quot;color: rgb(150, 150, 255);&quot;&gt;Object&lt;/span&gt;&lt;/div&gt;" style="text;strokeColor=none;fillColor=none;align=left;verticalAlign=middle;spacingLeft=4;spacingRight=4;overflow=hidden;points=[[0,0.5],[1,0.5]];portConstraint=eastwest;rotatable=0;whiteSpace=wrap;html=1;" vertex="1" parent="73">
                    <mxGeometry y="510" width="210" height="30" as="geometry"/>
                </mxCell>
                <mxCell id="94" value="roles" style="swimlane;fontStyle=0;childLayout=stackLayout;horizontal=1;startSize=30;horizontalStack=0;resizeParent=1;resizeParentMax=0;resizeLast=0;collapsible=1;marginBottom=0;whiteSpace=wrap;html=1;" vertex="1" parent="1">
                    <mxGeometry x="60" y="980" width="210" height="420" as="geometry"/>
                </mxCell>
                <mxCell id="95" value="&lt;div style=&quot;color: rgb(206, 206, 206); background-color: rgb(27, 27, 27); font-family: Consolas, &amp;quot;Courier New&amp;quot;, monospace; font-size: 14px; line-height: 25px;&quot;&gt;&lt;span style=&quot;&quot;&gt;_id&lt;/span&gt;:&amp;nbsp;&lt;span style=&quot;color: rgb(0, 220, 220);&quot;&gt;ObjectId&lt;/span&gt;&lt;/div&gt;" style="text;strokeColor=none;fillColor=none;align=left;verticalAlign=middle;spacingLeft=4;spacingRight=4;overflow=hidden;points=[[0,0.5],[1,0.5]];portConstraint=eastwest;rotatable=0;whiteSpace=wrap;html=1;" vertex="1" parent="94">
                    <mxGeometry y="30" width="210" height="30" as="geometry"/>
                </mxCell>
                <mxCell id="96" value="&lt;div style=&quot;color: rgb(206, 206, 206); background-color: rgb(27, 27, 27); font-family: Consolas, &amp;quot;Courier New&amp;quot;, monospace; font-size: 14px; line-height: 25px;&quot;&gt;&lt;span style=&quot;&quot;&gt;name&lt;/span&gt;:&amp;nbsp;&lt;span style=&quot;color: rgb(150, 150, 255);&quot;&gt;string&lt;/span&gt;&lt;/div&gt;" style="text;strokeColor=none;fillColor=none;align=left;verticalAlign=middle;spacingLeft=4;spacingRight=4;overflow=hidden;points=[[0,0.5],[1,0.5]];portConstraint=eastwest;rotatable=0;whiteSpace=wrap;html=1;" vertex="1" parent="94">
                    <mxGeometry y="60" width="210" height="30" as="geometry"/>
                </mxCell>
                <mxCell id="97" value="&lt;div style=&quot;color: rgb(206, 206, 206); background-color: rgb(27, 27, 27); font-family: Consolas, &amp;quot;Courier New&amp;quot;, monospace; font-size: 14px; line-height: 25px;&quot;&gt;&lt;span style=&quot;&quot;&gt;description&lt;/span&gt;:&amp;nbsp;&lt;span style=&quot;color: rgb(150, 150, 255);&quot;&gt;string&lt;/span&gt;&lt;/div&gt;" style="text;strokeColor=none;fillColor=none;align=left;verticalAlign=middle;spacingLeft=4;spacingRight=4;overflow=hidden;points=[[0,0.5],[1,0.5]];portConstraint=eastwest;rotatable=0;whiteSpace=wrap;html=1;" vertex="1" parent="94">
                    <mxGeometry y="90" width="210" height="30" as="geometry"/>
                </mxCell>
                <mxCell id="98" value="&lt;div style=&quot;color: rgb(206, 206, 206); background-color: rgb(27, 27, 27); font-family: Consolas, &amp;quot;Courier New&amp;quot;, monospace; font-size: 14px; line-height: 25px;&quot;&gt;&lt;span style=&quot;&quot;&gt;isActive&lt;/span&gt;:&amp;nbsp;&lt;span style=&quot;color: rgb(150, 150, 255);&quot;&gt;boolean&lt;/span&gt;&lt;/div&gt;" style="text;strokeColor=none;fillColor=none;align=left;verticalAlign=middle;spacingLeft=4;spacingRight=4;overflow=hidden;points=[[0,0.5],[1,0.5]];portConstraint=eastwest;rotatable=0;whiteSpace=wrap;html=1;" vertex="1" parent="94">
                    <mxGeometry y="120" width="210" height="30" as="geometry"/>
                </mxCell>
                <mxCell id="99" value="&lt;div style=&quot;color: rgb(206, 206, 206); background-color: rgb(27, 27, 27); font-family: Consolas, &amp;quot;Courier New&amp;quot;, monospace; font-size: 14px; line-height: 25px;&quot;&gt;&lt;span style=&quot;&quot;&gt;permissions&lt;/span&gt;:&amp;nbsp;&lt;span style=&quot;color: rgb(0, 220, 220);&quot;&gt;Permission&lt;/span&gt;&lt;span style=&quot;&quot;&gt;[]&lt;/span&gt;&lt;/div&gt;" style="text;strokeColor=none;fillColor=none;align=left;verticalAlign=middle;spacingLeft=4;spacingRight=4;overflow=hidden;points=[[0,0.5],[1,0.5]];portConstraint=eastwest;rotatable=0;whiteSpace=wrap;html=1;" vertex="1" parent="94">
                    <mxGeometry y="150" width="210" height="30" as="geometry"/>
                </mxCell>
                <mxCell id="104" value="&lt;div style=&quot;color: rgb(206, 206, 206); background-color: rgb(27, 27, 27); font-family: Consolas, &amp;quot;Courier New&amp;quot;, monospace; font-size: 14px; line-height: 25px;&quot;&gt;&lt;span style=&quot;&quot;&gt;isDeleted&lt;/span&gt;:&amp;nbsp;&lt;span style=&quot;color: rgb(150, 150, 255);&quot;&gt;boolean&lt;/span&gt;&lt;/div&gt;" style="text;strokeColor=none;fillColor=none;align=left;verticalAlign=middle;spacingLeft=4;spacingRight=4;overflow=hidden;points=[[0,0.5],[1,0.5]];portConstraint=eastwest;rotatable=0;whiteSpace=wrap;html=1;" vertex="1" parent="94">
                    <mxGeometry y="180" width="210" height="30" as="geometry"/>
                </mxCell>
                <mxCell id="105" value="&lt;div style=&quot;color: rgb(206, 206, 206); background-color: rgb(27, 27, 27); font-family: Consolas, &amp;quot;Courier New&amp;quot;, monospace; font-size: 14px; line-height: 25px;&quot;&gt;&lt;span style=&quot;&quot;&gt;isDeleted&lt;/span&gt;:&amp;nbsp;&lt;span style=&quot;color: rgb(150, 150, 255);&quot;&gt;boolean&lt;/span&gt;&lt;/div&gt;" style="text;strokeColor=none;fillColor=none;align=left;verticalAlign=middle;spacingLeft=4;spacingRight=4;overflow=hidden;points=[[0,0.5],[1,0.5]];portConstraint=eastwest;rotatable=0;whiteSpace=wrap;html=1;" vertex="1" parent="94">
                    <mxGeometry y="210" width="210" height="30" as="geometry"/>
                </mxCell>
                <mxCell id="106" value="&lt;div style=&quot;color: rgb(206, 206, 206); background-color: rgb(27, 27, 27); font-family: Consolas, &amp;quot;Courier New&amp;quot;, monospace; font-size: 14px; line-height: 25px;&quot;&gt;&lt;span style=&quot;&quot;&gt;createdAt&lt;/span&gt;:&amp;nbsp;&lt;span style=&quot;color: rgb(220, 140, 255);&quot;&gt;Date&lt;/span&gt;&lt;/div&gt;" style="text;strokeColor=none;fillColor=none;align=left;verticalAlign=middle;spacingLeft=4;spacingRight=4;overflow=hidden;points=[[0,0.5],[1,0.5]];portConstraint=eastwest;rotatable=0;whiteSpace=wrap;html=1;" vertex="1" parent="94">
                    <mxGeometry y="240" width="210" height="30" as="geometry"/>
                </mxCell>
                <mxCell id="107" value="&lt;div style=&quot;color: rgb(206, 206, 206); background-color: rgb(27, 27, 27); font-family: Consolas, &amp;quot;Courier New&amp;quot;, monospace; font-size: 14px; line-height: 25px;&quot;&gt;&lt;span style=&quot;&quot;&gt;updatedAt&lt;/span&gt;:&amp;nbsp;&lt;span style=&quot;color: rgb(220, 140, 255);&quot;&gt;Date&lt;/span&gt;&lt;/div&gt;" style="text;strokeColor=none;fillColor=none;align=left;verticalAlign=middle;spacingLeft=4;spacingRight=4;overflow=hidden;points=[[0,0.5],[1,0.5]];portConstraint=eastwest;rotatable=0;whiteSpace=wrap;html=1;" vertex="1" parent="94">
                    <mxGeometry y="270" width="210" height="30" as="geometry"/>
                </mxCell>
                <mxCell id="108" value="&lt;div style=&quot;color: rgb(206, 206, 206); background-color: rgb(27, 27, 27); font-family: Consolas, &amp;quot;Courier New&amp;quot;, monospace; font-size: 14px; line-height: 25px;&quot;&gt;&lt;span style=&quot;&quot;&gt;deletedAt&lt;/span&gt;:&amp;nbsp;&lt;span style=&quot;color: rgb(220, 140, 255);&quot;&gt;Date&lt;/span&gt;&lt;/div&gt;" style="text;strokeColor=none;fillColor=none;align=left;verticalAlign=middle;spacingLeft=4;spacingRight=4;overflow=hidden;points=[[0,0.5],[1,0.5]];portConstraint=eastwest;rotatable=0;whiteSpace=wrap;html=1;" vertex="1" parent="94">
                    <mxGeometry y="300" width="210" height="30" as="geometry"/>
                </mxCell>
                <mxCell id="109" value="&lt;div style=&quot;color: rgb(206, 206, 206); background-color: rgb(27, 27, 27); font-family: Consolas, &amp;quot;Courier New&amp;quot;, monospace; font-size: 14px; line-height: 25px;&quot;&gt;&lt;span style=&quot;&quot;&gt;createdBy&lt;/span&gt;:&amp;nbsp;&lt;span style=&quot;color: rgb(150, 150, 255);&quot;&gt;Object&lt;/span&gt;&lt;/div&gt;" style="text;strokeColor=none;fillColor=none;align=left;verticalAlign=middle;spacingLeft=4;spacingRight=4;overflow=hidden;points=[[0,0.5],[1,0.5]];portConstraint=eastwest;rotatable=0;whiteSpace=wrap;html=1;" vertex="1" parent="94">
                    <mxGeometry y="330" width="210" height="30" as="geometry"/>
                </mxCell>
                <mxCell id="110" value="&lt;div style=&quot;color: rgb(206, 206, 206); background-color: rgb(27, 27, 27); font-family: Consolas, &amp;quot;Courier New&amp;quot;, monospace; font-size: 14px; line-height: 25px;&quot;&gt;&lt;span style=&quot;&quot;&gt;updatedBy&lt;/span&gt;:&amp;nbsp;&lt;span style=&quot;color: rgb(150, 150, 255);&quot;&gt;Object&lt;/span&gt;&lt;/div&gt;" style="text;strokeColor=none;fillColor=none;align=left;verticalAlign=middle;spacingLeft=4;spacingRight=4;overflow=hidden;points=[[0,0.5],[1,0.5]];portConstraint=eastwest;rotatable=0;whiteSpace=wrap;html=1;" vertex="1" parent="94">
                    <mxGeometry y="360" width="210" height="30" as="geometry"/>
                </mxCell>
                <mxCell id="111" value="&lt;div style=&quot;color: rgb(206, 206, 206); background-color: rgb(27, 27, 27); font-family: Consolas, &amp;quot;Courier New&amp;quot;, monospace; font-size: 14px; line-height: 25px;&quot;&gt;&lt;span style=&quot;&quot;&gt;deletedBy&lt;/span&gt;:&amp;nbsp;&lt;span style=&quot;color: rgb(150, 150, 255);&quot;&gt;Object&lt;/span&gt;&lt;/div&gt;" style="text;strokeColor=none;fillColor=none;align=left;verticalAlign=middle;spacingLeft=4;spacingRight=4;overflow=hidden;points=[[0,0.5],[1,0.5]];portConstraint=eastwest;rotatable=0;whiteSpace=wrap;html=1;" vertex="1" parent="94">
                    <mxGeometry y="390" width="210" height="30" as="geometry"/>
                </mxCell>
                <mxCell id="112" value="jobs" style="swimlane;fontStyle=0;childLayout=stackLayout;horizontal=1;startSize=30;horizontalStack=0;resizeParent=1;resizeParentMax=0;resizeLast=0;collapsible=1;marginBottom=0;whiteSpace=wrap;html=1;" vertex="1" parent="1">
                    <mxGeometry x="620" y="950" width="210" height="570" as="geometry"/>
                </mxCell>
                <mxCell id="113" value="&lt;div style=&quot;color: rgb(206, 206, 206); background-color: rgb(27, 27, 27); font-family: Consolas, &amp;quot;Courier New&amp;quot;, monospace; font-size: 14px; line-height: 25px;&quot;&gt;&lt;span style=&quot;&quot;&gt;_id&lt;/span&gt;:&amp;nbsp;&lt;span style=&quot;color: rgb(0, 220, 220);&quot;&gt;ObjectId&lt;/span&gt;&lt;/div&gt;" style="text;strokeColor=none;fillColor=none;align=left;verticalAlign=middle;spacingLeft=4;spacingRight=4;overflow=hidden;points=[[0,0.5],[1,0.5]];portConstraint=eastwest;rotatable=0;whiteSpace=wrap;html=1;" vertex="1" parent="112">
                    <mxGeometry y="30" width="210" height="30" as="geometry"/>
                </mxCell>
                <mxCell id="114" value="&lt;div style=&quot;color: rgb(206, 206, 206); background-color: rgb(27, 27, 27); font-family: Consolas, &amp;quot;Courier New&amp;quot;, monospace; font-size: 14px; line-height: 25px;&quot;&gt;name:&amp;nbsp;&lt;span style=&quot;color: rgb(150, 150, 255);&quot;&gt;string&lt;/span&gt;&lt;/div&gt;" style="text;strokeColor=none;fillColor=none;align=left;verticalAlign=middle;spacingLeft=4;spacingRight=4;overflow=hidden;points=[[0,0.5],[1,0.5]];portConstraint=eastwest;rotatable=0;whiteSpace=wrap;html=1;" vertex="1" parent="112">
                    <mxGeometry y="60" width="210" height="30" as="geometry"/>
                </mxCell>
                <mxCell id="115" value="&lt;div style=&quot;color: rgb(206, 206, 206); background-color: rgb(27, 27, 27); font-family: Consolas, &amp;quot;Courier New&amp;quot;, monospace; font-size: 14px; line-height: 25px;&quot;&gt;&lt;span style=&quot;&quot;&gt;email&lt;/span&gt;:&amp;nbsp;&lt;span style=&quot;color: rgb(150, 150, 255);&quot;&gt;string&lt;/span&gt;&lt;/div&gt;" style="text;strokeColor=none;fillColor=none;align=left;verticalAlign=middle;spacingLeft=4;spacingRight=4;overflow=hidden;points=[[0,0.5],[1,0.5]];portConstraint=eastwest;rotatable=0;whiteSpace=wrap;html=1;" vertex="1" parent="112">
                    <mxGeometry y="90" width="210" height="30" as="geometry"/>
                </mxCell>
                <mxCell id="116" value="&lt;div style=&quot;color: rgb(206, 206, 206); background-color: rgb(27, 27, 27); font-family: Consolas, &amp;quot;Courier New&amp;quot;, monospace; font-size: 14px; line-height: 25px;&quot;&gt;&lt;span style=&quot;&quot;&gt;password&lt;/span&gt;:&amp;nbsp;&lt;span style=&quot;color: rgb(150, 150, 255);&quot;&gt;string&lt;/span&gt;&lt;/div&gt;" style="text;strokeColor=none;fillColor=none;align=left;verticalAlign=middle;spacingLeft=4;spacingRight=4;overflow=hidden;points=[[0,0.5],[1,0.5]];portConstraint=eastwest;rotatable=0;whiteSpace=wrap;html=1;" vertex="1" parent="112">
                    <mxGeometry y="120" width="210" height="30" as="geometry"/>
                </mxCell>
                <mxCell id="117" value="&lt;div style=&quot;color: rgb(206, 206, 206); background-color: rgb(27, 27, 27); font-family: Consolas, &amp;quot;Courier New&amp;quot;, monospace; font-size: 14px; line-height: 25px;&quot;&gt;&lt;span style=&quot;&quot;&gt;age&lt;/span&gt;:&amp;nbsp;&lt;span style=&quot;color: rgb(150, 150, 255);&quot;&gt;number&lt;/span&gt;&lt;/div&gt;" style="text;strokeColor=none;fillColor=none;align=left;verticalAlign=middle;spacingLeft=4;spacingRight=4;overflow=hidden;points=[[0,0.5],[1,0.5]];portConstraint=eastwest;rotatable=0;whiteSpace=wrap;html=1;" vertex="1" parent="112">
                    <mxGeometry y="150" width="210" height="30" as="geometry"/>
                </mxCell>
                <mxCell id="118" value="&lt;div style=&quot;color: rgb(206, 206, 206); background-color: rgb(27, 27, 27); font-family: Consolas, &amp;quot;Courier New&amp;quot;, monospace; font-size: 14px; line-height: 25px;&quot;&gt;&lt;span style=&quot;&quot;&gt;gender&lt;/span&gt;:&amp;nbsp;&lt;span style=&quot;color: rgb(150, 150, 255);&quot;&gt;string&lt;/span&gt;&lt;/div&gt;" style="text;strokeColor=none;fillColor=none;align=left;verticalAlign=middle;spacingLeft=4;spacingRight=4;overflow=hidden;points=[[0,0.5],[1,0.5]];portConstraint=eastwest;rotatable=0;whiteSpace=wrap;html=1;" vertex="1" parent="112">
                    <mxGeometry y="180" width="210" height="30" as="geometry"/>
                </mxCell>
                <mxCell id="119" value="&lt;div style=&quot;color: rgb(206, 206, 206); background-color: rgb(27, 27, 27); font-family: Consolas, &amp;quot;Courier New&amp;quot;, monospace; font-size: 14px; line-height: 25px;&quot;&gt;&lt;span style=&quot;&quot;&gt;address&lt;/span&gt;:&amp;nbsp;&lt;span style=&quot;color: rgb(150, 150, 255);&quot;&gt;string&lt;/span&gt;&lt;/div&gt;" style="text;strokeColor=none;fillColor=none;align=left;verticalAlign=middle;spacingLeft=4;spacingRight=4;overflow=hidden;points=[[0,0.5],[1,0.5]];portConstraint=eastwest;rotatable=0;whiteSpace=wrap;html=1;" vertex="1" parent="112">
                    <mxGeometry y="210" width="210" height="30" as="geometry"/>
                </mxCell>
                <mxCell id="120" value="&lt;div style=&quot;color: rgb(206, 206, 206); background-color: rgb(27, 27, 27); font-family: Consolas, &amp;quot;Courier New&amp;quot;, monospace; font-size: 14px; line-height: 25px;&quot;&gt;&lt;span style=&quot;&quot;&gt;company&lt;/span&gt;:&amp;nbsp;&lt;span style=&quot;color: rgb(0, 220, 220);&quot;&gt;ObjectId&lt;/span&gt;&lt;/div&gt;" style="text;strokeColor=none;fillColor=none;align=left;verticalAlign=middle;spacingLeft=4;spacingRight=4;overflow=hidden;points=[[0,0.5],[1,0.5]];portConstraint=eastwest;rotatable=0;whiteSpace=wrap;html=1;" vertex="1" parent="112">
                    <mxGeometry y="240" width="210" height="30" as="geometry"/>
                </mxCell>
                <mxCell id="121" value="&lt;div style=&quot;color: rgb(206, 206, 206); background-color: rgb(27, 27, 27); font-family: Consolas, &amp;quot;Courier New&amp;quot;, monospace; font-size: 14px; line-height: 25px;&quot;&gt;&lt;span style=&quot;&quot;&gt;role&lt;/span&gt;:&amp;nbsp;&lt;span style=&quot;color: rgb(0, 220, 220);&quot;&gt;ObjectId&lt;/span&gt;&lt;/div&gt;" style="text;strokeColor=none;fillColor=none;align=left;verticalAlign=middle;spacingLeft=4;spacingRight=4;overflow=hidden;points=[[0,0.5],[1,0.5]];portConstraint=eastwest;rotatable=0;whiteSpace=wrap;html=1;" vertex="1" parent="112">
                    <mxGeometry y="270" width="210" height="30" as="geometry"/>
                </mxCell>
                <mxCell id="122" value="&lt;div style=&quot;color: rgb(206, 206, 206); background-color: rgb(27, 27, 27); font-family: Consolas, &amp;quot;Courier New&amp;quot;, monospace; font-size: 14px; line-height: 25px;&quot;&gt;&lt;span style=&quot;&quot;&gt;refreshToken&lt;/span&gt;:&amp;nbsp;&lt;span style=&quot;color: rgb(150, 150, 255);&quot;&gt;string&lt;/span&gt;&lt;/div&gt;" style="text;strokeColor=none;fillColor=none;align=left;verticalAlign=middle;spacingLeft=4;spacingRight=4;overflow=hidden;points=[[0,0.5],[1,0.5]];portConstraint=eastwest;rotatable=0;whiteSpace=wrap;html=1;" vertex="1" parent="112">
                    <mxGeometry y="300" width="210" height="30" as="geometry"/>
                </mxCell>
                <mxCell id="124" value="&lt;div style=&quot;color: rgb(206, 206, 206); background-color: rgb(27, 27, 27); font-family: Consolas, &amp;quot;Courier New&amp;quot;, monospace; font-size: 14px; line-height: 25px;&quot;&gt;&lt;span style=&quot;&quot;&gt;isDeleted&lt;/span&gt;:&amp;nbsp;&lt;span style=&quot;color: rgb(150, 150, 255);&quot;&gt;boolean&lt;/span&gt;&lt;/div&gt;" style="text;strokeColor=none;fillColor=none;align=left;verticalAlign=middle;spacingLeft=4;spacingRight=4;overflow=hidden;points=[[0,0.5],[1,0.5]];portConstraint=eastwest;rotatable=0;whiteSpace=wrap;html=1;" vertex="1" parent="112">
                    <mxGeometry y="330" width="210" height="30" as="geometry"/>
                </mxCell>
                <mxCell id="125" value="&lt;div style=&quot;color: rgb(206, 206, 206); background-color: rgb(27, 27, 27); font-family: Consolas, &amp;quot;Courier New&amp;quot;, monospace; font-size: 14px; line-height: 25px;&quot;&gt;&lt;span style=&quot;&quot;&gt;isDeleted&lt;/span&gt;:&amp;nbsp;&lt;span style=&quot;color: rgb(150, 150, 255);&quot;&gt;boolean&lt;/span&gt;&lt;/div&gt;" style="text;strokeColor=none;fillColor=none;align=left;verticalAlign=middle;spacingLeft=4;spacingRight=4;overflow=hidden;points=[[0,0.5],[1,0.5]];portConstraint=eastwest;rotatable=0;whiteSpace=wrap;html=1;" vertex="1" parent="112">
                    <mxGeometry y="360" width="210" height="30" as="geometry"/>
                </mxCell>
                <mxCell id="126" value="&lt;div style=&quot;color: rgb(206, 206, 206); background-color: rgb(27, 27, 27); font-family: Consolas, &amp;quot;Courier New&amp;quot;, monospace; font-size: 14px; line-height: 25px;&quot;&gt;&lt;span style=&quot;&quot;&gt;createdAt&lt;/span&gt;:&amp;nbsp;&lt;span style=&quot;color: rgb(220, 140, 255);&quot;&gt;Date&lt;/span&gt;&lt;/div&gt;" style="text;strokeColor=none;fillColor=none;align=left;verticalAlign=middle;spacingLeft=4;spacingRight=4;overflow=hidden;points=[[0,0.5],[1,0.5]];portConstraint=eastwest;rotatable=0;whiteSpace=wrap;html=1;" vertex="1" parent="112">
                    <mxGeometry y="390" width="210" height="30" as="geometry"/>
                </mxCell>
                <mxCell id="127" value="&lt;div style=&quot;color: rgb(206, 206, 206); background-color: rgb(27, 27, 27); font-family: Consolas, &amp;quot;Courier New&amp;quot;, monospace; font-size: 14px; line-height: 25px;&quot;&gt;&lt;span style=&quot;&quot;&gt;updatedAt&lt;/span&gt;:&amp;nbsp;&lt;span style=&quot;color: rgb(220, 140, 255);&quot;&gt;Date&lt;/span&gt;&lt;/div&gt;" style="text;strokeColor=none;fillColor=none;align=left;verticalAlign=middle;spacingLeft=4;spacingRight=4;overflow=hidden;points=[[0,0.5],[1,0.5]];portConstraint=eastwest;rotatable=0;whiteSpace=wrap;html=1;" vertex="1" parent="112">
                    <mxGeometry y="420" width="210" height="30" as="geometry"/>
                </mxCell>
                <mxCell id="128" value="&lt;div style=&quot;color: rgb(206, 206, 206); background-color: rgb(27, 27, 27); font-family: Consolas, &amp;quot;Courier New&amp;quot;, monospace; font-size: 14px; line-height: 25px;&quot;&gt;&lt;span style=&quot;&quot;&gt;deletedAt&lt;/span&gt;:&amp;nbsp;&lt;span style=&quot;color: rgb(220, 140, 255);&quot;&gt;Date&lt;/span&gt;&lt;/div&gt;" style="text;strokeColor=none;fillColor=none;align=left;verticalAlign=middle;spacingLeft=4;spacingRight=4;overflow=hidden;points=[[0,0.5],[1,0.5]];portConstraint=eastwest;rotatable=0;whiteSpace=wrap;html=1;" vertex="1" parent="112">
                    <mxGeometry y="450" width="210" height="30" as="geometry"/>
                </mxCell>
                <mxCell id="129" value="&lt;div style=&quot;color: rgb(206, 206, 206); background-color: rgb(27, 27, 27); font-family: Consolas, &amp;quot;Courier New&amp;quot;, monospace; font-size: 14px; line-height: 25px;&quot;&gt;&lt;span style=&quot;&quot;&gt;createdBy&lt;/span&gt;:&amp;nbsp;&lt;span style=&quot;color: rgb(150, 150, 255);&quot;&gt;Object&lt;/span&gt;&lt;/div&gt;" style="text;strokeColor=none;fillColor=none;align=left;verticalAlign=middle;spacingLeft=4;spacingRight=4;overflow=hidden;points=[[0,0.5],[1,0.5]];portConstraint=eastwest;rotatable=0;whiteSpace=wrap;html=1;" vertex="1" parent="112">
                    <mxGeometry y="480" width="210" height="30" as="geometry"/>
                </mxCell>
                <mxCell id="130" value="&lt;div style=&quot;color: rgb(206, 206, 206); background-color: rgb(27, 27, 27); font-family: Consolas, &amp;quot;Courier New&amp;quot;, monospace; font-size: 14px; line-height: 25px;&quot;&gt;&lt;span style=&quot;&quot;&gt;updatedBy&lt;/span&gt;:&amp;nbsp;&lt;span style=&quot;color: rgb(150, 150, 255);&quot;&gt;Object&lt;/span&gt;&lt;/div&gt;" style="text;strokeColor=none;fillColor=none;align=left;verticalAlign=middle;spacingLeft=4;spacingRight=4;overflow=hidden;points=[[0,0.5],[1,0.5]];portConstraint=eastwest;rotatable=0;whiteSpace=wrap;html=1;" vertex="1" parent="112">
                    <mxGeometry y="510" width="210" height="30" as="geometry"/>
                </mxCell>
                <mxCell id="131" value="&lt;div style=&quot;color: rgb(206, 206, 206); background-color: rgb(27, 27, 27); font-family: Consolas, &amp;quot;Courier New&amp;quot;, monospace; font-size: 14px; line-height: 25px;&quot;&gt;&lt;span style=&quot;&quot;&gt;deletedBy&lt;/span&gt;:&amp;nbsp;&lt;span style=&quot;color: rgb(150, 150, 255);&quot;&gt;Object&lt;/span&gt;&lt;/div&gt;" style="text;strokeColor=none;fillColor=none;align=left;verticalAlign=middle;spacingLeft=4;spacingRight=4;overflow=hidden;points=[[0,0.5],[1,0.5]];portConstraint=eastwest;rotatable=0;whiteSpace=wrap;html=1;" vertex="1" parent="112">
                    <mxGeometry y="540" width="210" height="30" as="geometry"/>
                </mxCell>
                <mxCell id="134" style="edgeStyle=orthogonalEdgeStyle;html=1;exitX=0;exitY=0.5;exitDx=0;exitDy=0;entryX=1;entryY=0.5;entryDx=0;entryDy=0;fillColor=#6a00ff;strokeColor=#3700CC;strokeWidth=3;" edge="1" parent="1" source="18" target="55">
                    <mxGeometry relative="1" as="geometry">
                        <Array as="points">
                            <mxPoint x="520" y="345"/>
                            <mxPoint x="520" y="255"/>
                        </Array>
                    </mxGeometry>
                </mxCell>
                <mxCell id="135" style="edgeStyle=orthogonalEdgeStyle;html=1;exitX=1;exitY=0.5;exitDx=0;exitDy=0;entryX=0;entryY=0.5;entryDx=0;entryDy=0;fillColor=#1ba1e2;strokeColor=#006EAF;strokeWidth=3;" edge="1" parent="1" source="99" target="58">
                    <mxGeometry relative="1" as="geometry">
                        <Array as="points">
                            <mxPoint x="330" y="1145"/>
                            <mxPoint x="330" y="920"/>
                            <mxPoint x="980" y="920"/>
                            <mxPoint x="980" y="265"/>
                        </Array>
                    </mxGeometry>
                </mxCell>
                <mxCell id="136" style="edgeStyle=orthogonalEdgeStyle;html=1;exitX=0;exitY=0.5;exitDx=0;exitDy=0;entryX=1;entryY=0.5;entryDx=0;entryDy=0;fillColor=#0050ef;strokeColor=#001DBC;strokeWidth=3;" edge="1" parent="1" source="120" target="55">
                    <mxGeometry relative="1" as="geometry">
                        <Array as="points">
                            <mxPoint x="450" y="1205"/>
                            <mxPoint x="450" y="255"/>
                        </Array>
                    </mxGeometry>
                </mxCell>
                <mxCell id="137" style="edgeStyle=orthogonalEdgeStyle;html=1;exitX=0;exitY=0.5;exitDx=0;exitDy=0;entryX=1;entryY=0.5;entryDx=0;entryDy=0;strokeWidth=3;fillColor=#0050ef;strokeColor=#001DBC;" edge="1" parent="1" source="121" target="95">
                    <mxGeometry relative="1" as="geometry">
                        <Array as="points">
                            <mxPoint x="390" y="1235"/>
                            <mxPoint x="390" y="1025"/>
                        </Array>
                    </mxGeometry>
                </mxCell>
                <mxCell id="138" style="edgeStyle=orthogonalEdgeStyle;html=1;exitX=0;exitY=0.5;exitDx=0;exitDy=0;entryX=1;entryY=0.5;entryDx=0;entryDy=0;fillColor=#008a00;strokeColor=#005700;strokeWidth=3;" edge="1" parent="1" source="80" target="113">
                    <mxGeometry relative="1" as="geometry"/>
                </mxCell>
                <mxCell id="139" style="edgeStyle=orthogonalEdgeStyle;html=1;exitX=0;exitY=0.5;exitDx=0;exitDy=0;entryX=1;entryY=0.5;entryDx=0;entryDy=0;fillColor=#a20025;strokeColor=#016F13;strokeWidth=3;" edge="1" parent="1" source="79" target="55">
                    <mxGeometry relative="1" as="geometry">
                        <Array as="points">
                            <mxPoint x="1020" y="1160"/>
                            <mxPoint x="1020" y="830"/>
                            <mxPoint x="330" y="830"/>
                            <mxPoint x="330" y="255"/>
                        </Array>
                    </mxGeometry>
                </mxCell>
            </root>
        </mxGraphModel>
    </diagram>
</mxfile>